<svg width="64" height="64" viewBox="0 0 64 64" fill="none" xmlns="http://www.w3.org/2000/svg">
<rect width="64" height="64" rx="8" fill="#6A2C70"/>
<path d="M42.2656 15.7656C48.5156 15.7656 53.2188 16.9844 56.375 19.4219C59.5312 21.8438 61.1094 25.5547 61.1094 30.5547C61.1094 33.1484 60.7422 35.4141 60.0078 37.3516C59.2891 39.2734 58.1719 40.875 56.6562 42.1562C55.1406 43.4375 53.2109 44.3984 50.8672 45.0391C48.5391 45.6797 45.7578 46 42.5234 46H30.1719V43.6797H31.6953C32.3516 43.6797 32.8516 43.6328 33.1953 43.5391C33.5547 43.4453 33.8125 43.3125 33.9688 43.1406C34.1406 42.9531 34.2422 42.7266 34.2734 42.4609C34.3047 42.1797 34.3203 41.8594 34.3203 41.5C34.3203 41.5 34.3203 41.1953 34.3203 40.5859C34.3203 39.9609 34.3125 39.1484 34.2969 38.1484C34.2969 37.1328 34.2969 35.9844 34.2969 34.7031C34.2969 33.4062 34.2969 32.0859 34.2969 30.7422V20.0312C34.2969 19.5625 34.2422 19.2031 34.1328 18.9531C34.0234 18.6875 33.8125 18.4922 33.5 18.3672C33.2031 18.2266 32.7812 18.1406 32.2344 18.1094C31.7031 18.0781 31.0156 18.0625 30.1719 18.0625V15.7656H42.2656ZM38.5859 43.3984H43.3906C45.5 43.3984 47.3672 43.1562 48.9922 42.6719C50.6328 42.1875 52.0078 41.4297 53.1172 40.3984C54.2422 39.3672 55.0938 38.0469 55.6719 36.4375C56.25 34.8281 56.5391 32.8984 56.5391 30.6484C56.5391 28.5547 56.25 26.7344 55.6719 25.1875C55.1094 23.6406 54.2734 22.3594 53.1641 21.3438C52.0547 20.3281 50.6797 19.5703 49.0391 19.0703C47.4141 18.5703 45.5391 18.3203 43.4141 18.3203H38.5859V43.3984Z" fill="#FFDE7D"/>
<path d="M22.7344 48.2344C16.4844 48.2344 11.7812 47.0156 8.625 44.5781C5.46875 42.1562 3.89062 38.4453 3.89062 33.4453C3.89062 30.8516 4.25781 28.5859 4.99219 26.6484C5.71094 24.7266 6.82812 23.125 8.34375 21.8438C9.85937 20.5625 11.7891 19.6016 14.1328 18.9609C16.4609 18.3203 19.2422 18 22.4766 18H34.8281V20.3203H33.3047C32.6484 20.3203 32.1484 20.3672 31.8047 20.4609C31.4453 20.5547 31.1875 20.6875 31.0312 20.8594C30.8594 21.0469 30.7578 21.2734 30.7266 21.5391C30.6953 21.8203 30.6797 22.1406 30.6797 22.5C30.6797 22.5 30.6797 22.8047 30.6797 23.4141C30.6797 24.0391 30.6875 24.8516 30.7031 25.8516C30.7031 26.8672 30.7031 28.0156 30.7031 29.2969C30.7031 30.5938 30.7031 31.9141 30.7031 33.2578V43.9688C30.7031 44.4375 30.7578 44.7969 30.8672 45.0469C30.9766 45.3125 31.1875 45.5078 31.5 45.6328C31.7969 45.7734 32.2188 45.8594 32.7656 45.8906C33.2969 45.9219 33.9844 45.9375 34.8281 45.9375V48.2344H22.7344ZM26.4141 20.6016H21.6094C19.5 20.6016 17.6328 20.8438 16.0078 21.3281C14.3672 21.8125 12.9922 22.5703 11.8828 23.6016C10.7578 24.6328 9.90625 25.9531 9.32812 27.5625C8.75 29.1719 8.46094 31.1016 8.46094 33.3516C8.46094 35.4453 8.75 37.2656 9.32812 38.8125C9.89062 40.3594 10.7266 41.6406 11.8359 42.6562C12.9453 43.6719 14.3203 44.4297 15.9609 44.9297C17.5859 45.4297 19.4609 45.6797 21.5859 45.6797H26.4141V20.6016Z" fill="#FFDE7D"/>
</svg>
